<?xml version="1.0" encoding="utf-8"?>
<!-- Generator: Adobe Illustrator 18.0.0, SVG Export Plug-In . SVG Version: 6.00 Build 0)  -->
<!DOCTYPE svg PUBLIC "-//W3C//DTD SVG 1.1//EN" "http://www.w3.org/Graphics/SVG/1.1/DTD/svg11.dtd">
<svg version="1.1" id="Layer_1" xmlns="http://www.w3.org/2000/svg" xmlns:xlink="http://www.w3.org/1999/xlink" x="0px" y="0px"
	 viewBox="0 0 100 100" enable-background="new 0 0 100 100" xml:space="preserve">
<g>
	<path fill="#939393" d="M16.1,26.4c2,1.3,29.2,19.5,30.2,20.1c1,0.7,2.3,1,3.7,1c1.3,0,2.6-0.3,3.7-1c1-0.7,28.3-18.8,30.2-20.1
		c2-1.3,3.8-5.4,0.2-5.4H15.9C12.3,21,14.2,25.1,16.1,26.4z M84.7,36.4C82.5,37.9,55,55.7,53.7,56.6c-1.4,0.9-2.3,1-3.7,1
		c-1.3,0-2.3-0.1-3.7-1C45,55.7,17.5,37.9,15.3,36.4c-1.6-1-1.6,0.2-1.6,1.1c0,0.9,0,36.7,0,36.7c0,2.1,2.3,4.8,4,4.8h64.5
		c1.7,0,4-2.7,4-4.8c0,0,0-35.8,0-36.7C86.3,36.6,86.3,35.4,84.7,36.4z"/>
</g>
</svg>
