<?xml version="1.0" encoding="utf-8"?>
<!-- Generator: Adobe Illustrator 18.0.0, SVG Export Plug-In . SVG Version: 6.00 Build 0)  -->
<!DOCTYPE svg PUBLIC "-//W3C//DTD SVG 1.1//EN" "http://www.w3.org/Graphics/SVG/1.1/DTD/svg11.dtd">
<svg version="1.1" id="Layer_1" xmlns="http://www.w3.org/2000/svg" xmlns:xlink="http://www.w3.org/1999/xlink" x="0px" y="0px"
	 viewBox="0 0 100 100" enable-background="new 0 0 100 100" xml:space="preserve">
<g>
	<path fill="#666666" d="M20.4,90.4c-5.9,0-10.8-4.8-10.8-10.8s4.8-10.8,10.8-10.8s10.8,4.8,10.8,10.8
		C31.2,85.6,26.3,90.4,20.4,90.4z"/>
	<path fill="#666666" d="M47.4,90.5c0-10.2-3.9-19.7-11.1-26.9S19.7,52.5,9.7,52.5V37C39,37,62.9,61,62.9,90.5L47.4,90.5L47.4,90.5z
		"/>
	<path fill="#666666" d="M74.8,90.5C74.8,54.4,45.6,25,9.7,25V9.5c44.5,0,80.7,36.4,80.7,81.1L74.8,90.5L74.8,90.5z"/>
</g>
</svg>
